# xmcd
#
# Track frame offsets: 
#        182
#        19177
#        38092
#        57142
#
# Disc length: 1010 seconds
#
# Revision: 0
# Processed by: cddbd v1.5.2PL0 Copyright (c) Steve Scherf et al.
# Submitted via: ExactAudioCopy v1.3
#
DISCID=2803f004
DTITLE=Gerald Levert Feat. Rah Digga - Thinkin' Bout It (Remix) (Promo
DTITLE=CDS)
DYEAR=1998
DGENRE=R&B
TTITLE0=Thinkin' Bout It (Blaq Rain Radio Remix)
TTITLE1=Thinkin' Bout It (Blaq Rain Radio Remix Edit)
TTITLE2=Thinkin' Bout It (Blaze Dance Remix Edit)
TTITLE3=Thinkin' Bout It (Mucho Remix Edit)
EXTD=
EXTT0=
EXTT1=
EXTT2=
EXTT3=
PLAYORDER=
